<svg width="142" height="35" viewBox="0 0 142 35" fill="none" xmlns="http://www.w3.org/2000/svg">
<path d="M127.605 22.8094C127.605 23.1243 127.521 23.4021 127.355 23.6429C127.207 23.8651 127.151 24.143 127.188 24.4764C126.929 24.6245 126.716 24.819 126.549 25.0598C126.382 25.3006 126.225 25.5506 126.077 25.8099C124.854 26.6063 123.539 27.2453 122.132 27.7269C120.742 28.227 119.307 28.477 117.825 28.477C117.733 28.477 117.649 28.4307 117.575 28.3381C117.501 28.264 117.427 28.1807 117.353 28.0881C117.279 27.9955 117.196 27.9029 117.103 27.8102C117.029 27.7362 116.936 27.6991 116.825 27.6991C116.696 27.6991 116.594 27.7269 116.52 27.7825C116.52 27.7454 116.52 27.7084 116.52 27.6713C116.538 27.6528 116.547 27.625 116.547 27.588C116.547 27.3657 116.52 27.1342 116.464 26.8934C116.408 26.6712 116.381 26.4489 116.381 26.2266C116.381 25.9673 116.427 25.7543 116.52 25.5877H116.853C117.038 25.5877 117.214 25.5784 117.381 25.5599C117.566 25.5228 117.761 25.5043 117.964 25.5043C118.168 25.5043 118.353 25.5599 118.52 25.671C119.539 25.634 120.502 25.4487 121.409 25.1154C122.335 24.7634 123.271 24.4208 124.215 24.0874C124.363 23.8837 124.447 23.6614 124.465 23.4206C124.502 23.1613 124.576 22.9205 124.688 22.6983C124.206 22.2908 123.715 21.9759 123.215 21.7537C122.734 21.5129 122.169 21.4295 121.52 21.5036C121.131 21.2629 120.715 21.1239 120.27 21.0869C119.844 21.0499 119.409 20.9943 118.964 20.9202C118.853 20.9017 118.733 20.8832 118.603 20.8646C118.492 20.8276 118.372 20.8091 118.242 20.8091C118.149 20.8091 118.057 20.8369 117.964 20.8924C117.89 20.9295 117.872 20.9943 117.909 21.0869C117.816 20.9387 117.686 20.8554 117.52 20.8369C117.372 20.7998 117.242 20.7257 117.131 20.6146C116.538 20.5776 116.019 20.4757 115.575 20.309C115.13 20.1238 114.64 19.92 114.102 19.6978C113.954 19.6422 113.806 19.6052 113.658 19.5866C113.528 19.5496 113.399 19.494 113.269 19.42C112.936 19.2533 112.667 19.031 112.463 18.7532C112.26 18.4753 112.102 18.1697 111.991 17.8364C111.861 17.4844 111.769 17.1233 111.713 16.7528C111.658 16.3824 111.602 16.0398 111.547 15.7249C111.713 15.4285 111.871 15.1229 112.019 14.8081C112.148 14.4932 112.26 14.1598 112.352 13.8079C112.463 13.7523 112.574 13.706 112.686 13.669C112.797 13.6319 112.917 13.5856 113.047 13.5301C113.028 13.493 113.019 13.4467 113.019 13.3912C113.019 13.2986 113.047 13.2059 113.102 13.1133C113.176 13.0207 113.195 12.9281 113.158 12.8355C113.565 12.4651 113.954 12.0854 114.325 11.6964C114.714 11.289 115.047 10.8444 115.325 10.3629C115.603 10.2703 115.825 10.1314 115.992 9.94614C116.158 9.76092 116.325 9.57571 116.492 9.39049C116.658 9.18675 116.844 9.0108 117.047 8.86262C117.251 8.69593 117.51 8.59406 117.825 8.55702C117.899 8.42737 118.001 8.3255 118.131 8.25141C118.261 8.1588 118.39 8.07546 118.52 8.00137C118.65 7.92728 118.77 7.84394 118.881 7.75133C118.992 7.65872 119.076 7.52907 119.131 7.36237C119.427 7.36237 119.696 7.30681 119.937 7.19568C120.196 7.08455 120.446 6.96416 120.687 6.83451C120.928 6.70486 121.168 6.58446 121.409 6.47334C121.669 6.36221 121.946 6.30664 122.243 6.30664C122.317 6.30664 122.391 6.3159 122.465 6.33442C122.539 6.33442 122.622 6.34368 122.715 6.36221C122.845 6.49186 122.928 6.64929 122.965 6.83451C123.021 7.0012 123.058 7.18642 123.076 7.39016C123.095 7.59389 123.104 7.79763 123.104 8.00137C123.123 8.20511 123.16 8.39032 123.215 8.55702C123.048 8.87189 122.863 9.18675 122.659 9.50162C122.474 9.81649 122.224 10.0573 121.909 10.224H121.854C121.724 10.2425 121.604 10.2147 121.493 10.1406C121.381 10.0665 121.252 10.0295 121.104 10.0295C121.011 10.0295 120.937 10.0573 120.881 10.1128L120.742 10.2517C120.705 10.2888 120.65 10.3258 120.576 10.3629C120.52 10.3999 120.437 10.3999 120.326 10.3629C120.066 10.4555 119.965 10.6129 120.02 10.8352C119.668 10.8722 119.372 10.9834 119.131 11.1686C118.89 11.3353 118.668 11.5297 118.464 11.752C118.261 11.9557 118.057 12.1502 117.853 12.3354C117.649 12.5021 117.409 12.5947 117.131 12.6133C116.816 13.1689 116.427 13.6597 115.964 14.0857C115.519 14.5117 115.149 14.9933 114.853 15.5304C114.908 15.6786 114.945 15.836 114.964 16.0027C114.982 16.1694 115.01 16.3454 115.047 16.5306C115.214 16.7528 115.408 16.9473 115.631 17.114C115.871 17.2807 116.103 17.4474 116.325 17.6141H116.408C116.779 17.6141 117.122 17.6882 117.436 17.8364C117.751 17.966 118.085 18.0308 118.437 18.0308C118.622 18.0308 118.779 17.9938 118.909 17.9197C119.39 18.0308 119.863 18.1234 120.326 18.1975C120.807 18.2716 121.289 18.3272 121.77 18.3642C122.011 18.4013 122.252 18.4198 122.493 18.4198C122.752 18.4198 122.993 18.4476 123.215 18.5031C123.419 18.5587 123.623 18.6328 123.826 18.7254C124.03 18.7995 124.234 18.8828 124.438 18.9754C124.864 19.1606 125.262 19.3644 125.632 19.5866C126.021 19.8089 126.364 20.0775 126.66 20.3923C126.957 20.6887 127.188 21.0406 127.355 21.4481C127.521 21.837 127.605 22.2908 127.605 22.8094Z" fill="white"/>
<path d="M111.991 22.8094C111.898 23.1057 111.871 23.4021 111.908 23.6984C111.852 23.7725 111.787 23.8188 111.713 23.8373C111.639 23.8559 111.565 23.8836 111.491 23.9207C111.417 23.9392 111.352 23.9762 111.296 24.0318C111.259 24.0688 111.259 24.1522 111.296 24.2818C110.685 24.3189 110.102 24.4485 109.546 24.6708C108.99 24.8931 108.444 25.1338 107.907 25.3931C107.629 25.3005 107.388 25.1894 107.185 25.0598C106.981 24.9301 106.722 24.8468 106.407 24.8097C106.092 24.18 105.795 23.5225 105.518 22.8372C105.258 22.1333 105.129 21.4295 105.129 20.7257C105.129 20.2071 105.221 19.7348 105.407 19.3088C105.407 18.7531 105.453 18.2068 105.545 17.6696C105.638 17.1325 105.74 16.6046 105.851 16.086C105.981 15.5489 106.092 15.0118 106.184 14.4746C106.277 13.9375 106.323 13.3911 106.323 12.8355V12.2243C106.286 12.2243 106.24 12.2706 106.184 12.3632C106.129 12.4373 106.073 12.5299 106.018 12.641C105.981 12.7336 105.944 12.8262 105.907 12.9188C105.87 13.0114 105.842 13.067 105.823 13.0855C105.508 13.3263 105.258 13.6319 105.073 14.0023C104.906 14.3543 104.721 14.6876 104.517 15.0025C104.258 15.3915 103.98 15.7712 103.684 16.1416C103.406 16.512 103.054 16.7991 102.628 17.0029V17.0584C102.628 17.151 102.6 17.2158 102.545 17.2529C102.489 17.2899 102.48 17.3825 102.517 17.5307C102.054 17.6789 101.619 17.8919 101.211 18.1697C100.822 18.4475 100.498 18.7994 100.239 19.2254C99.8686 19.3181 99.5166 19.4477 99.1833 19.6144C98.8684 19.7626 98.5443 19.9293 98.2109 20.1145C98.0627 20.1886 97.9053 20.2812 97.7386 20.3923C97.5719 20.5034 97.4052 20.5775 97.2385 20.6146C97.0903 20.6701 96.8866 20.7072 96.6273 20.7257C96.3865 20.7442 96.1272 20.7627 95.8494 20.7813C95.5901 20.7998 95.3308 20.809 95.0715 20.809H94.4602C94.3676 20.809 94.2472 20.7627 94.0991 20.6701C93.9509 20.5775 93.7842 20.4757 93.599 20.3645C93.4323 20.2534 93.2563 20.1515 93.0711 20.0589C92.8859 19.9478 92.7099 19.8737 92.5433 19.8367C92.3951 19.3551 92.1821 18.9291 91.9043 18.5587C91.645 18.1697 91.3671 17.7808 91.0708 17.3918C90.9782 16.9473 90.8485 16.4842 90.6818 16.0027C90.5337 15.5211 90.2651 15.1229 89.8761 14.808C89.9687 14.6784 90.0151 14.5302 90.0151 14.3635C90.0151 14.1598 89.9687 13.9653 89.8761 13.7801C89.7835 13.5949 89.7372 13.3911 89.7372 13.1689C89.7372 13.0207 89.7465 12.9096 89.765 12.8355C89.5613 13.0577 89.4131 13.3448 89.3205 13.6967C89.2464 14.0301 89.2094 14.3357 89.2094 14.6136C89.2094 14.8358 89.2371 15.0396 89.2927 15.2248C89.1075 15.4841 88.9871 15.8082 88.9315 16.1972C88.8945 16.5861 88.876 16.9288 88.876 17.2251C88.876 17.5955 88.9038 17.9567 88.9593 18.3086C88.663 18.605 88.5148 18.9661 88.5148 19.3921C88.5148 19.6329 88.5704 19.8459 88.6815 20.0311C88.6815 20.1052 88.663 20.1608 88.6259 20.1978C88.5889 20.2349 88.5426 20.2627 88.487 20.2812C88.45 20.2997 88.4037 20.3275 88.3481 20.3645C88.3111 20.383 88.2925 20.4294 88.2925 20.5034C88.2925 20.596 88.2925 20.6979 88.2925 20.809C88.3111 20.9202 88.3203 21.0313 88.3203 21.1424C88.3203 21.4017 88.3111 21.6703 88.2925 21.9481C88.274 22.2259 88.2648 22.4945 88.2648 22.7538C88.2648 23.2909 88.3111 23.6799 88.4037 23.9207C88.5148 24.1429 88.6445 24.3096 88.7926 24.4208C88.9593 24.5319 89.1353 24.643 89.3205 24.7542C89.5057 24.8653 89.6909 25.0783 89.8761 25.3931C89.8206 25.5598 89.7187 25.6988 89.5705 25.8099C89.4409 25.9025 89.3112 26.0044 89.1816 26.1155C89.0704 26.2081 88.9686 26.3192 88.876 26.4489C88.7834 26.5785 88.7463 26.7637 88.7648 27.0045H88.6259C88.3851 27.0045 88.1536 27.0416 87.9314 27.1157C87.7091 27.1897 87.4776 27.2268 87.2368 27.2268C87.1812 27.2268 87.1257 27.2175 87.0701 27.199C87.0145 27.199 86.959 27.199 86.9034 27.199L86.6256 27.0323C86.533 26.9767 86.4404 26.949 86.3478 26.949C86.2552 26.949 86.1348 26.9675 85.9866 27.0045C85.7273 26.1711 85.5236 25.3098 85.3754 24.4208C85.2457 23.5317 85.1809 22.6612 85.1809 21.8092C85.1809 21.7166 85.1994 21.624 85.2365 21.5314C85.292 21.4203 85.3661 21.3832 85.4587 21.4203V20.8924C85.4587 20.3182 85.505 19.7626 85.5976 19.2254C85.7088 18.6698 85.7643 18.0956 85.7643 17.5029C85.7643 17.3362 85.7551 17.1695 85.7366 17.0029C85.7366 16.8362 85.7273 16.6787 85.7088 16.5306C85.8014 16.2157 85.894 15.9008 85.9866 15.5859C86.0977 15.2526 86.1533 14.9099 86.1533 14.558C86.1533 14.4098 86.1255 14.2339 86.0699 14.0301C86.2181 13.919 86.3292 13.7801 86.4033 13.6134C86.4774 13.4282 86.533 13.2337 86.57 13.03C86.6071 12.8077 86.6349 12.5947 86.6534 12.391C86.6719 12.1872 86.6904 12.002 86.7089 11.8353C86.8942 11.4649 86.996 11.0667 87.0145 10.6407C87.0331 10.2147 87.1257 9.81646 87.2924 9.44603C87.2739 9.37194 87.2646 9.24229 87.2646 9.05707C87.2646 8.68664 87.3202 8.31621 87.4313 7.94578C87.5609 7.55682 87.811 7.26048 88.1814 7.05674C88.5148 7.18639 88.9038 7.25122 89.3483 7.25122C89.7743 7.25122 90.1817 7.18639 90.5707 7.05674C90.6818 7.09378 90.7837 7.14009 90.8763 7.19565C90.9689 7.23269 91.0615 7.279 91.1541 7.33456C91.2653 7.37161 91.3764 7.40865 91.4875 7.44569C91.5987 7.46422 91.7283 7.46422 91.8765 7.44569C92.0617 7.98282 92.2191 8.52921 92.3488 9.08486C92.4969 9.64051 92.6081 10.2054 92.6822 10.7796C92.7192 11.0204 92.7285 11.2797 92.7099 11.5575C92.7099 11.8353 92.7285 12.0946 92.7655 12.3354C92.784 12.4836 92.8303 12.6225 92.9044 12.7521C92.9785 12.8633 93.0526 12.9929 93.1267 13.1411C93.2008 13.2893 93.2563 13.456 93.2934 13.6412C93.3489 13.8264 93.3675 14.0579 93.3489 14.3357C93.5527 14.8173 93.7749 15.2803 94.0157 15.7249C94.275 16.1509 94.5528 16.5769 94.8492 17.0029C95.0159 17.0584 95.1641 17.1325 95.2937 17.2251C95.4234 17.2992 95.5067 17.4288 95.5438 17.6141C95.7105 17.6141 95.8586 17.6418 95.9883 17.6974L96.4606 17.8363C97.1644 17.6141 97.8127 17.3177 98.4053 16.9473C99.0166 16.5769 99.6556 16.262 100.322 16.0027C101.137 15.2063 101.841 14.3265 102.434 13.3634C103.026 12.3817 103.619 11.4093 104.212 10.4462V9.83498C104.323 9.77942 104.416 9.71459 104.49 9.64051C104.582 9.5479 104.693 9.48307 104.823 9.44603C104.842 9.22377 104.888 9.01077 104.962 8.80703C105.055 8.58477 105.147 8.38104 105.24 8.19582C105.351 7.99208 105.444 7.7976 105.518 7.61239C105.592 7.40865 105.629 7.19565 105.629 6.97339C105.629 6.84374 105.62 6.73261 105.601 6.64C105.879 6.36218 106.212 6.22327 106.601 6.22327C106.972 6.22327 107.342 6.31587 107.712 6.50109C108.101 6.66779 108.463 6.82522 108.796 6.97339C109 7.41791 109.148 7.89021 109.24 8.3903C109.352 8.87186 109.426 9.37194 109.463 9.89055C109.5 10.4092 109.518 10.9278 109.518 11.4464V13.4189C109.5 13.5671 109.444 13.6782 109.352 13.7523C109.278 13.8079 109.222 13.9005 109.185 14.0301V14.308C109.185 14.4006 109.176 14.4932 109.157 14.5858C109.157 14.9747 109.111 15.3822 109.018 15.8082C108.926 16.3453 108.805 16.8917 108.657 17.4474C108.527 17.9845 108.463 18.5309 108.463 19.0865C108.463 19.2903 108.472 19.494 108.49 19.6977C108.509 19.9015 108.546 20.1052 108.602 20.309C108.509 20.4757 108.463 20.6887 108.463 20.948C108.463 21.2443 108.509 21.5221 108.602 21.7814C108.713 22.0222 108.842 22.263 108.99 22.5038C109.25 22.5038 109.509 22.4945 109.768 22.476C110.028 22.4575 110.296 22.4482 110.574 22.4482C110.833 22.4482 111.074 22.476 111.296 22.5316C111.519 22.5686 111.75 22.6612 111.991 22.8094Z" fill="white"/>
<path d="M85.4587 19.1699C85.4587 19.3736 85.3846 19.531 85.2365 19.6422C85.0883 19.7348 85.0142 19.8644 85.0142 20.0311C85.0142 20.1052 85.0513 20.1978 85.1253 20.3089C84.866 20.3089 84.6901 20.3923 84.5975 20.559C84.5049 20.7257 84.4123 20.9109 84.3196 21.1146H83.9585C83.8659 21.1146 83.7918 21.1332 83.7362 21.1702C83.6807 21.2072 83.6251 21.2628 83.5695 21.3369C83.5325 21.3925 83.4769 21.4851 83.4028 21.6147C83.0509 21.6888 82.7083 21.8092 82.3749 21.9759C82.06 22.1241 81.7451 22.2908 81.4303 22.476C81.1339 22.6427 80.8283 22.8186 80.5135 23.0038C80.1986 23.1705 79.8745 23.3094 79.5411 23.4206C79.3744 23.6984 79.1336 23.9207 78.8187 24.0874H78.7354C78.6428 24.1059 78.5594 24.0966 78.4853 24.0596C78.4298 24.004 78.3557 23.9762 78.2631 23.9762C78.2075 23.9762 78.1705 23.9855 78.1519 24.004C77.5963 24.3744 76.9758 24.5597 76.2905 24.5597C76.1053 24.5597 75.9294 24.5504 75.7627 24.5319C75.596 24.4948 75.42 24.4763 75.2348 24.4763C75.1792 24.4763 75.1422 24.4948 75.1237 24.5319L75.0681 24.643C75.0496 24.68 75.0218 24.7171 74.9847 24.7541C74.9662 24.7912 74.9014 24.8097 74.7903 24.8097C74.5865 24.8097 74.3828 24.7819 74.1791 24.7263C73.9753 24.6708 73.7623 24.6615 73.5401 24.6986C73.1141 24.4578 72.7807 24.2263 72.5399 24.004C72.2991 23.7817 72.0769 23.4484 71.8731 23.0038C71.7805 22.8001 71.6509 22.6056 71.4842 22.4204C71.336 22.2352 71.2249 22.0315 71.1508 21.8092C71.1323 21.7351 71.1045 21.6055 71.0674 21.4202C71.0304 21.2165 70.9933 21.0035 70.9563 20.7812C70.9193 20.559 70.8822 20.346 70.8452 20.1422C70.8266 19.9385 70.8174 19.7996 70.8174 19.7255C70.8174 19.5032 70.8266 19.2902 70.8452 19.0865C70.8822 18.8643 70.9193 18.642 70.9563 18.4197C71.0674 17.7159 71.1415 17.0121 71.1786 16.3083C71.2341 15.5859 71.3916 14.8914 71.6509 14.2246C71.6138 14.0208 71.5953 13.8264 71.5953 13.6412V13.0299C71.5953 12.678 71.549 12.3817 71.4564 12.1409C71.6046 11.9001 71.6786 11.6316 71.6786 11.3352C71.6786 11.0018 71.5397 10.8073 71.2619 10.7518V10.6684C71.2619 10.2795 71.1323 9.97387 70.8729 9.75161C70.8729 9.10336 71.0304 8.62179 71.3452 8.30693C71.6786 7.97354 72.1139 7.68645 72.651 7.44567C72.7251 7.33454 72.7529 7.24193 72.7344 7.16785C72.864 7.20489 72.9844 7.24193 73.0955 7.27898C73.2067 7.31602 73.3178 7.33454 73.4289 7.33454C73.6141 7.33454 73.7808 7.30676 73.929 7.25119C73.9846 7.47345 74.1235 7.61237 74.3458 7.66793C74.5865 7.70497 74.781 7.76054 74.9292 7.83463V8.1958C74.9292 8.76997 75.0681 9.31635 75.3459 9.83496C75.2718 9.98313 75.2255 10.1406 75.207 10.3073C75.1885 10.474 75.1792 10.6314 75.1792 10.7796C75.1792 11.0018 75.1885 11.2241 75.207 11.4463C75.2255 11.6686 75.2348 11.8816 75.2348 12.0853C75.2348 12.3076 75.207 12.5299 75.1514 12.7521C75.1144 12.9744 75.0125 13.1689 74.8458 13.3355C74.8273 13.5763 74.8088 13.8542 74.7903 14.169C74.7903 14.4654 74.7717 14.771 74.7347 15.0858C74.7162 15.4007 74.6699 15.7063 74.5958 16.0027C74.5217 16.299 74.4106 16.5398 74.2624 16.725C74.2439 17.0028 74.2254 17.2899 74.2068 17.5863C74.2068 17.8641 74.2068 18.1326 74.2068 18.392C74.2068 18.7994 74.2254 19.281 74.2624 19.8366C74.318 20.3923 74.4476 20.8553 74.6514 21.2258C74.744 21.3739 74.9199 21.4851 75.1792 21.5591C75.457 21.6332 75.6793 21.6703 75.846 21.6703C76.0497 21.6703 76.2535 21.6425 76.4572 21.5869C76.6795 21.5128 76.8369 21.3925 76.9295 21.2258C77.0406 21.2443 77.1147 21.2998 77.1518 21.3925C77.1888 21.4851 77.2536 21.5591 77.3463 21.6147C78.402 21.1702 79.4577 20.7442 80.5135 20.3367C81.5692 19.9292 82.6064 19.4569 83.6251 18.9198C83.7733 18.9939 83.9307 19.0309 84.0974 19.0309C84.2826 19.0309 84.4678 19.0124 84.653 18.9754C84.8383 18.9383 85.0235 18.9198 85.2087 18.9198H85.4032C85.4402 19.0309 85.4587 19.1143 85.4587 19.1699Z" fill="white"/>
<path d="M70.5396 24.2819C70.484 24.5412 70.3636 24.7542 70.1784 24.9209C70.0117 25.069 69.808 25.1894 69.5672 25.282C69.3264 25.3746 69.0763 25.4395 68.817 25.4765C68.5763 25.495 68.354 25.5043 68.1503 25.5043C68.0577 25.5043 67.965 25.5043 67.8724 25.5043C67.7984 25.4858 67.715 25.4765 67.6224 25.4765C67.5298 25.4765 67.4835 25.5228 67.4835 25.6154C67.4835 25.708 67.4372 25.7729 67.3446 25.8099C67.252 25.7729 67.1594 25.7451 67.0668 25.7266C66.9741 25.708 66.8815 25.6988 66.7889 25.6988C66.6593 25.6988 66.5296 25.708 66.4 25.7266C66.2888 25.7451 66.1777 25.7543 66.0666 25.7543C65.9184 25.7543 65.8073 25.7358 65.7332 25.6988C65.6776 25.6617 65.6221 25.6247 65.5665 25.5876C65.5295 25.5321 65.4832 25.4765 65.4276 25.4209C65.3905 25.3654 65.3257 25.3191 65.2331 25.282C65.1035 25.2265 64.9923 25.2172 64.8997 25.2543C64.8256 25.2913 64.7052 25.2357 64.5385 25.0876C64.3163 24.9023 64.1218 24.6801 63.9551 24.4208C63.8069 24.143 63.6588 23.8559 63.5106 23.5595C63.3624 23.2632 63.205 22.9668 63.0383 22.6705C62.8716 22.3741 62.6771 22.1148 62.4549 21.8926H62.2326C61.8992 21.8926 61.6677 22.0315 61.538 22.3093C61.4454 22.2538 61.3528 22.1889 61.2602 22.1148C61.1676 22.0222 61.0657 21.9481 60.9546 21.8926C60.5286 22.0222 60.0841 22.1334 59.6211 22.226C59.158 22.3186 58.695 22.3649 58.2319 22.3649H57.843C57.7319 22.3649 57.6115 22.3464 57.4818 22.3093C57.2966 22.3834 57.1299 22.476 56.9817 22.5871C56.8336 22.6797 56.6669 22.7261 56.4816 22.7261C56.3705 22.7261 56.2409 22.689 56.0927 22.6149C55.9816 22.6149 55.926 22.6612 55.926 22.7538C55.9445 22.8464 55.889 22.8927 55.7593 22.8927H55.5093C55.25 22.8927 54.9907 22.902 54.7313 22.9205C54.4906 22.9391 54.2405 22.9483 53.9812 22.9483C53.6293 22.9483 53.2681 22.902 52.8977 22.8094C52.8051 22.865 52.7032 22.8927 52.5921 22.8927C52.518 22.9298 52.4625 22.9946 52.4254 23.0872C52.3884 23.1613 52.3513 23.2354 52.3143 23.3095C52.2772 23.365 52.2217 23.4206 52.1476 23.4762C52.092 23.5132 52.0087 23.5225 51.8975 23.504C51.8605 23.7262 51.7679 23.9022 51.6197 24.0318C51.4715 24.1615 51.3975 24.356 51.3975 24.6153C51.1937 24.7264 51.027 24.8653 50.8974 25.032C50.7677 25.1987 50.6381 25.3746 50.5084 25.5599C50.3788 25.7451 50.2399 25.921 50.0917 26.0877C49.962 26.2544 49.7953 26.3841 49.5916 26.4767C49.499 26.5878 49.4712 26.7638 49.5083 27.0045C49.3045 27.1712 49.0545 27.3194 48.7581 27.4491C48.4618 27.5787 48.184 27.6435 47.9247 27.6435C47.3875 27.6435 47.0171 27.3565 46.8134 26.7823C46.8134 26.5971 46.8319 26.4026 46.8689 26.1989C46.8874 25.9766 46.9245 25.7729 46.98 25.5876C47.0356 25.3839 47.119 25.208 47.2301 25.0598C47.3412 24.8931 47.4987 24.7727 47.7024 24.6986C47.7024 24.5319 47.6468 24.4208 47.5357 24.3652C47.4246 24.2911 47.3783 24.1707 47.3968 24.004C47.8969 23.7633 48.3321 23.4484 48.7026 23.0594C49.073 22.6705 49.4064 22.263 49.7027 21.837C50.0176 21.3925 50.3325 20.948 50.6473 20.5035C50.9622 20.0589 51.3141 19.6607 51.7031 19.3088V18.7254C52.2587 18.1327 52.6199 17.4659 52.7866 16.725C52.9903 16.688 53.12 16.5954 53.1755 16.4472C53.2496 16.299 53.2867 16.1231 53.2867 15.9194C53.3793 15.9194 53.4348 15.8823 53.4534 15.8082C53.4904 15.7156 53.5737 15.6878 53.7034 15.7249C53.8701 15.2804 54.0553 14.8729 54.259 14.5025C54.4628 14.132 54.6665 13.7616 54.8703 13.3912C55.074 13.0022 55.25 12.604 55.3981 12.1965C55.5648 11.789 55.6852 11.3353 55.7593 10.8352C56.0186 10.8166 56.1575 10.6963 56.176 10.474C56.2131 10.2332 56.2501 10.0202 56.2872 9.835C56.565 9.5757 56.7687 9.27009 56.8984 8.91818C57.0466 8.56627 57.1762 8.2051 57.2873 7.83467C57.3985 7.44571 57.5189 7.06602 57.6485 6.69559C57.7967 6.30663 58.0004 5.96398 58.2597 5.66764V5.58429C58.2597 5.49168 58.2227 5.43612 58.1486 5.41759C58.0745 5.38055 58.0375 5.31573 58.0375 5.22312C58.056 5.2046 58.0652 5.18607 58.0652 5.16755C58.2875 5.07494 58.4542 4.92677 58.5653 4.72303C58.6765 4.50077 58.8431 4.34334 59.0654 4.25073C59.4544 4.5656 59.797 4.76008 60.0934 4.83416C60.3897 4.88973 60.7787 4.93603 61.2602 4.97308C61.501 5.23238 61.6307 5.54725 61.6492 5.91768C61.6862 6.26959 61.751 6.6215 61.8437 6.97341C61.9918 7.5661 62.1493 8.14953 62.316 8.7237C62.5012 9.27935 62.6401 9.85352 62.7327 10.4462C62.7883 10.7981 62.8901 11.1315 63.0383 11.4464C63.1865 11.7613 63.2883 12.0854 63.3439 12.4188C63.3809 12.6781 63.3809 12.9744 63.3439 13.3078C63.3069 13.6227 63.3439 13.9005 63.455 14.1413L63.6495 14.5858C63.7421 14.7895 63.8162 15.0025 63.8718 15.2248C63.9459 15.4471 64.0107 15.6693 64.0662 15.8916C64.2144 16.4472 64.3441 17.0492 64.4552 17.6974C64.5849 18.3272 64.7793 18.9013 65.0386 19.4199C65.1312 19.6052 65.2702 19.7348 65.4554 19.8089C65.6591 19.883 65.8814 19.9385 66.1221 19.9756C66.3629 19.9941 66.5944 20.0034 66.8167 20.0034C67.0575 19.9849 67.2612 19.9756 67.4279 19.9756H67.7057C67.8169 19.9756 67.928 19.9941 68.0391 20.0312C68.1132 20.1793 68.1503 20.309 68.1503 20.4201C68.1503 20.6424 68.0762 20.8183 67.928 20.948C67.7798 21.0776 67.7057 21.2258 67.7057 21.3925C67.7057 21.4851 67.7428 21.587 67.8169 21.6981C67.7428 21.6796 67.6317 21.6703 67.4835 21.6703C67.0575 21.6703 66.6408 21.7444 66.2333 21.8926C66.3815 22.2074 66.5759 22.476 66.8167 22.6983C67.076 22.902 67.3446 23.0965 67.6224 23.2817C67.8076 23.1335 68.0021 23.0594 68.2058 23.0594C68.4281 23.0594 68.6318 23.115 68.817 23.2261C69.0208 23.3187 69.2338 23.365 69.456 23.365C69.6227 23.365 69.7431 23.3373 69.8172 23.2817C69.9654 23.4484 70.0858 23.6244 70.1784 23.8096C70.271 23.9763 70.3914 24.1337 70.5396 24.2819ZM61.8437 19.8367C61.8066 19.5218 61.7418 19.2996 61.6492 19.1699C61.5751 19.0217 61.5103 18.8458 61.4547 18.642C61.3806 18.3827 61.325 18.1049 61.288 17.8086C61.2695 17.5122 61.2324 17.2251 61.1769 16.9473C61.0472 16.3176 60.899 15.6878 60.7324 15.0581C60.5842 14.4284 60.3897 13.8172 60.1489 13.2245C60.223 13.1133 60.2601 13.0115 60.2601 12.9189V12.8355C60.0934 12.6503 59.973 12.428 59.8989 12.1687C59.8248 11.8909 59.7507 11.6223 59.6766 11.363C59.6211 11.0852 59.5377 10.8352 59.4266 10.6129C59.334 10.3721 59.1765 10.1777 58.9543 10.0295C58.8987 10.1406 58.8709 10.2703 58.8709 10.4184C58.8709 10.5481 58.8802 10.6685 58.8987 10.7796C58.9358 10.8907 58.9543 11.0111 58.9543 11.1408C58.7691 11.2334 58.6302 11.3816 58.5375 11.5853C58.4635 11.7705 58.3338 11.9187 58.1486 12.0298C58.0004 12.6225 57.7874 13.1874 57.5096 13.7245C57.2318 14.2431 56.9354 14.7618 56.6206 15.2804C56.3242 15.799 56.0371 16.3268 55.7593 16.864C55.4815 17.3826 55.2592 17.929 55.0925 18.5031C54.8517 18.6698 54.685 18.8828 54.5924 19.1421C54.5184 19.4014 54.4813 19.6607 54.4813 19.92C54.648 20.0126 54.8332 20.0682 55.037 20.0867C55.2592 20.0867 55.4722 20.0867 55.676 20.0867C55.8797 20.0867 56.0742 20.1052 56.2594 20.1423C56.4446 20.1793 56.6113 20.2719 56.7595 20.4201C57.0002 20.346 57.2596 20.2997 57.5374 20.2812C57.8337 20.2442 58.0745 20.1608 58.2597 20.0312C58.6302 20.1608 59.0284 20.2256 59.4544 20.2256C59.6766 20.2256 59.8896 20.2071 60.0934 20.1701C60.3156 20.133 60.5286 20.0867 60.7324 20.0312C60.899 20.0682 61.0287 20.133 61.1213 20.2256C61.2139 20.2997 61.3528 20.3275 61.538 20.309C61.6307 20.2349 61.6862 20.1608 61.7047 20.0867C61.7233 19.9941 61.7696 19.9108 61.8437 19.8367Z" fill="white"/>
<path d="M51.2031 8.64035V8.75148C51.0734 8.78852 51.0086 8.88113 51.0086 9.0293C50.8048 9.12191 50.5918 9.19599 50.3696 9.25156C50.1473 9.2886 49.9343 9.35343 49.7306 9.44604C49.5269 9.42752 49.3139 9.41825 49.0916 9.41825C48.8879 9.39973 48.6841 9.39047 48.4804 9.39047C47.9247 9.39047 47.3691 9.40899 46.8134 9.44604C46.2578 9.48308 45.7021 9.48308 45.1465 9.44604C44.8872 9.59421 44.6001 9.7146 44.2852 9.80721C43.9889 9.88129 43.7018 9.91834 43.424 9.91834C43.2017 9.91834 43.0072 9.89056 42.8405 9.83499C42.396 10.0573 41.9052 10.2425 41.3681 10.3906C40.8495 10.5388 40.3216 10.687 39.7845 10.8352C39.2474 10.9648 38.7287 11.1222 38.2287 11.3075C37.7471 11.4742 37.3211 11.7149 36.9507 12.0298C36.9136 12.2891 36.8858 12.5484 36.8673 12.8077C36.8488 13.0485 36.8395 13.2893 36.8395 13.5301C36.8395 13.7894 36.8488 14.0301 36.8673 14.2524C36.9044 14.4747 36.9692 14.6969 37.0618 14.9192C37.1544 14.9562 37.2563 14.984 37.3674 15.0025C37.4971 15.021 37.6082 15.0303 37.7008 15.0303C37.7934 15.0303 37.886 15.021 37.9786 15.0025C38.0712 14.9655 38.1361 14.9007 38.1731 14.808C38.4509 14.771 38.7287 14.7617 39.0066 14.7803C39.2844 14.7803 39.5622 14.7803 39.84 14.7803C40.1179 14.7803 40.3864 14.771 40.6457 14.7525C40.9236 14.734 41.1921 14.6877 41.4514 14.6136C41.7478 14.5395 42.0349 14.4932 42.3127 14.4747C42.609 14.4561 42.8961 14.4376 43.1739 14.4191C43.4518 14.4006 43.7388 14.3728 44.0352 14.3357C44.3315 14.2802 44.6371 14.1783 44.952 14.0301C45.1928 14.1227 45.4336 14.1691 45.6744 14.1691C45.9337 14.1691 46.1837 14.1876 46.4245 14.2246C46.5541 14.3172 46.656 14.4191 46.7301 14.5302C46.8227 14.6414 46.869 14.771 46.869 14.9192C46.869 15.1785 46.7764 15.4378 46.5912 15.6971C46.406 15.9564 46.2578 16.1972 46.1467 16.4194H45.8411C45.3965 16.4194 44.9613 16.4843 44.5353 16.6139C44.1278 16.725 43.7111 16.8639 43.2851 17.0306C42.8776 17.1788 42.4609 17.3177 42.0349 17.4474C41.6274 17.5585 41.2014 17.6141 40.7569 17.6141C40.6828 17.6141 40.6365 17.6604 40.618 17.753C40.618 17.8271 40.5994 17.8826 40.5624 17.9197C40.4698 17.9012 40.3309 17.8919 40.1457 17.8919C39.7197 17.8919 39.3122 17.9382 38.9232 18.0308C38.5343 18.1234 38.1361 18.1697 37.7286 18.1697C37.6175 18.1697 37.5063 18.1697 37.3952 18.1697C37.2841 18.1512 37.1729 18.1327 37.0618 18.1142C36.9692 18.2623 36.8488 18.3642 36.7006 18.4198C36.5525 18.4568 36.4135 18.5309 36.2839 18.642C36.2283 18.8087 36.1913 19.0125 36.1728 19.2532C36.1728 19.494 36.1635 19.7441 36.145 20.0034C36.145 20.2441 36.1265 20.4757 36.0894 20.6979C36.0524 20.9202 35.9783 21.0961 35.8672 21.2258C35.8857 21.3184 35.9598 21.3554 36.0894 21.3369C36.2191 21.2999 36.2839 21.3554 36.2839 21.5036C36.2839 21.6703 36.2654 21.8463 36.2283 22.0315C36.1913 22.2167 36.1728 22.4019 36.1728 22.5871C36.1728 22.939 36.2098 23.328 36.2839 23.754C36.3765 24.1615 36.5062 24.5412 36.6728 24.8931C36.8581 25.245 37.0988 25.5413 37.3952 25.7821C37.6915 26.0044 38.062 26.1155 38.5065 26.1155C38.8028 26.1155 39.0807 26.0599 39.34 25.9488C39.5993 25.8377 39.8123 25.6525 39.979 25.3932L40.1179 25.3654C40.192 25.3654 40.2568 25.3746 40.3123 25.3932C40.3864 25.4117 40.4605 25.4209 40.5346 25.4209C40.6457 25.4209 40.7846 25.3561 40.9513 25.2265C41.1366 25.0783 41.331 24.9116 41.5348 24.7264C41.757 24.5412 41.9793 24.3652 42.2016 24.1985C42.4238 24.0133 42.6368 23.8836 42.8405 23.8096C42.9702 23.5503 43.0906 23.2909 43.2017 23.0316C43.3314 22.7723 43.5166 22.5686 43.7574 22.4204V21.6147C43.9426 21.411 44.1371 21.2258 44.3408 21.0591C44.5631 20.8924 44.7298 20.6794 44.8409 20.4201C44.9335 20.4571 45.0168 20.4849 45.0909 20.5034C45.1835 20.522 45.2761 20.5312 45.3687 20.5312C45.4614 20.5312 45.554 20.522 45.6466 20.5034C45.7577 20.4849 45.8596 20.4571 45.9522 20.4201C46.1004 20.6238 46.2115 20.8554 46.2856 21.1147C46.3782 21.3554 46.4893 21.587 46.619 21.8092C46.4523 22.1426 46.2578 22.5408 46.0355 23.0039C45.8133 23.4669 45.5725 23.9299 45.3132 24.393C45.0539 24.856 44.7761 25.3005 44.4797 25.7265C44.2019 26.134 43.9241 26.4489 43.6462 26.6711C43.5907 26.7267 43.4703 26.7915 43.2851 26.8656C43.0813 27.0138 42.8961 27.1527 42.7294 27.2824C42.5627 27.4305 42.4053 27.5972 42.2571 27.7824C41.72 27.9491 41.2014 28.1714 40.7013 28.4492C40.2197 28.727 39.7382 28.9956 39.2566 29.2549C39.0344 29.1993 38.7936 29.1716 38.5343 29.1716C38.312 29.1716 38.0898 29.1808 37.8675 29.1993C37.6452 29.2364 37.4045 29.2549 37.1451 29.2549C37.0711 29.1623 36.9599 29.0975 36.8118 29.0604C36.6821 29.0419 36.6358 28.9493 36.6728 28.7826C36.0431 28.7456 35.5338 28.5696 35.1448 28.2547C34.7559 27.9584 34.4225 27.588 34.1446 27.1434C33.8853 26.6989 33.6723 26.2174 33.5056 25.6988C33.339 25.1802 33.163 24.6801 32.9778 24.1985V24.1152C32.9778 24.0226 33.0148 23.967 33.0889 23.9485C33.163 23.9299 33.2 23.8744 33.2 23.7818C33.2 23.7447 33.1908 23.7169 33.1723 23.6984C33.1167 23.4947 33.0704 23.3187 33.0333 23.1706C32.9963 23.0224 32.9778 22.8464 32.9778 22.6427C32.9778 22.3463 32.9963 22.0593 33.0333 21.7814C33.0704 21.4851 33.0889 21.1887 33.0889 20.8924C33.0889 20.5961 33.0519 20.3368 32.9778 20.1145C33.0519 20.0219 33.1167 19.9015 33.1723 19.7533C33.2093 19.5866 33.2371 19.4199 33.2556 19.2532C33.2741 19.0865 33.2834 18.9198 33.2834 18.7532C33.3019 18.5865 33.3297 18.4383 33.3667 18.3086C33.2927 18.1049 33.2278 17.9289 33.1723 17.7808C33.1167 17.6141 33.0889 17.4196 33.0889 17.1973V17.0029C33.2741 16.688 33.4316 16.3639 33.5612 16.0305C33.6909 15.6971 33.8298 15.3544 33.978 15.0025V14.9192C33.978 14.382 33.9594 13.8449 33.9224 13.3078C33.8853 12.7707 33.8668 12.2335 33.8668 11.6964V11.1685C33.8668 10.9833 33.8761 10.8074 33.8946 10.6407C34.0428 10.5666 34.1539 10.4647 34.228 10.3351C34.3021 10.2054 34.4132 10.1036 34.5614 10.0295H35.4782L35.6449 9.75164C35.7005 9.65904 35.7375 9.55717 35.756 9.44604C35.9598 9.39047 36.1542 9.31639 36.3395 9.22378C36.5432 9.11265 36.7284 9.00152 36.8951 8.89039C37.1544 8.74222 37.3859 8.61256 37.5897 8.50143C37.8119 8.37178 38.0249 8.26991 38.2287 8.19583C38.4509 8.10322 38.6824 8.02913 38.9232 7.97357C39.164 7.918 39.4418 7.8717 39.7567 7.83466C39.9049 7.83466 39.9975 7.80687 40.0345 7.75131C40.0901 7.69574 40.1642 7.63092 40.2568 7.55683C40.479 7.59387 40.7013 7.63092 40.9236 7.66796C41.1458 7.68648 41.3681 7.69574 41.5903 7.69574C42.0349 7.69574 42.4516 7.6124 42.8405 7.4457C43.3962 7.4457 43.9426 7.43644 44.4797 7.41792C45.0354 7.3994 45.591 7.39014 46.1467 7.39014C46.6282 7.39014 47.1098 7.40866 47.5913 7.4457C48.0729 7.48274 48.5452 7.54757 49.0082 7.64018C49.1749 7.58461 49.3602 7.55683 49.5639 7.55683C49.7862 7.55683 50.0084 7.58461 50.2307 7.64018C50.4715 7.67722 50.703 7.67722 50.9252 7.64018C50.9438 7.84392 50.9901 8.01987 51.0641 8.16804C51.1568 8.2977 51.2031 8.45513 51.2031 8.64035Z" fill="white"/>
<path d="M42.3404 27.449C42.3034 27.8195 42.1737 28.1066 41.9515 28.3103C41.7292 28.5326 41.4421 28.6437 41.0902 28.6437C40.905 28.6437 40.729 28.6159 40.5624 28.5603C40.2104 28.8382 39.7937 29.0512 39.3121 29.1993C38.8306 29.3475 38.3768 29.4957 37.9508 29.6439C37.4322 29.6253 36.9229 29.579 36.4228 29.5049C35.9227 29.4309 35.4041 29.4123 34.867 29.4494C34.6817 29.3197 34.4873 29.2364 34.2835 29.1993C34.0798 29.1623 33.8668 29.1345 33.6445 29.116C33.4408 29.116 33.2371 29.0882 33.0333 29.0326C32.8481 28.9771 32.6629 28.8474 32.4777 28.6437H31.0885C30.9589 28.6437 30.7644 28.5789 30.5051 28.4492C30.2643 28.3381 29.9865 28.2177 29.6716 28.088C29.3753 27.9584 29.0512 27.838 28.6993 27.7269C28.3659 27.6157 28.051 27.5602 27.7547 27.5602H27.588C27.3842 27.3935 27.1434 27.2638 26.8656 27.1712C26.6063 27.0971 26.3377 27.0231 26.0599 26.949C25.7821 26.8934 25.5135 26.8286 25.2542 26.7545C24.9949 26.6804 24.7727 26.5785 24.5875 26.4489C24.4022 26.3192 24.1892 26.1896 23.9485 26.0599C23.7077 25.9118 23.4576 25.8469 23.1983 25.8654C22.8464 25.6617 22.476 25.4858 22.087 25.3376C21.7166 25.1894 21.3369 25.0505 20.948 24.9208L19.8089 24.5041C19.4384 24.3559 19.068 24.18 18.6976 23.9762C18.642 23.9948 18.5772 23.9948 18.5031 23.9762C18.429 23.9577 18.3642 23.9485 18.3086 23.9485C18.1975 23.9485 18.1327 23.9855 18.1141 24.0596C17.9845 23.9299 17.8363 23.8188 17.6696 23.7262C17.5215 23.6336 17.3733 23.5225 17.2251 23.3928C17.151 23.4113 17.0769 23.4299 17.0028 23.4484C16.9473 23.4484 16.8732 23.4484 16.7806 23.4484C16.6139 23.4484 16.4472 23.4299 16.2805 23.3928C16.1323 23.3558 15.9842 23.3095 15.836 23.2539C15.6693 23.6243 15.5582 24.0411 15.5026 24.5041C15.447 24.9671 15.4007 25.4487 15.3637 25.9488C15.3452 26.4304 15.3174 26.9119 15.2803 27.3935C15.2433 27.8936 15.1599 28.3473 15.0303 28.7548C15.0673 28.903 15.0859 29.0512 15.0859 29.1993V29.6716C15.0859 29.9865 15.1322 30.2366 15.2248 30.4218C15.1877 30.5885 15.1507 30.7459 15.1136 30.8941C15.0951 31.0422 15.0673 31.1904 15.0303 31.3386C15.0488 31.5423 15.0581 31.7275 15.0581 31.8942C15.0766 32.0795 15.0859 32.2739 15.0859 32.4777V32.95C15.0859 33.1167 15.0673 33.2834 15.0303 33.4501C14.8451 33.5612 14.6599 33.6631 14.4746 33.7557C14.2894 33.8668 14.1042 33.9964 13.919 34.1446C13.7893 33.9038 13.5671 33.7649 13.2522 33.7279C13.1781 33.8205 13.1226 33.9409 13.0855 34.0891C13.067 34.2557 12.9837 34.3391 12.8355 34.3391C12.5762 34.1354 12.3632 33.9687 12.1965 33.839C12.0298 33.7094 11.8446 33.5149 11.6408 33.2556C11.6223 33.2185 11.6131 33.1722 11.6131 33.1167C11.6131 33.0241 11.6316 32.9407 11.6686 32.8666C11.7057 32.7925 11.7242 32.7184 11.7242 32.6444C11.7242 32.4221 11.6964 32.2276 11.6408 32.0609C11.6038 31.8202 11.576 31.5794 11.5575 31.3386C11.539 31.1163 11.5297 30.8941 11.5297 30.6718C11.5297 30.3569 11.5482 30.0513 11.5853 29.755C11.6408 29.4586 11.7334 29.153 11.8631 28.8382C12.0668 28.301 12.2057 27.7361 12.2798 27.1434C12.3724 26.5507 12.4373 25.9581 12.4743 25.3654C12.5114 24.7542 12.5299 24.1429 12.5299 23.5317C12.5484 22.9205 12.5854 22.3371 12.641 21.7814C12.5114 21.4851 12.3539 21.2536 12.1687 21.0869C12.002 20.9017 11.9187 20.6146 11.9187 20.2256C11.9187 19.8737 12.0298 19.6051 12.2521 19.4199C12.4743 19.2162 12.6688 18.9754 12.8355 18.6976C12.7984 18.5865 12.8262 18.5124 12.9188 18.4753L13.2522 15.5582C13.2707 15.3544 13.2985 15.1322 13.3356 14.8914C13.3911 14.6506 13.4282 14.4283 13.4467 14.2246C13.4837 13.7986 13.5023 13.3819 13.5023 12.9744C13.5023 12.5669 13.5208 12.1594 13.5578 11.752C13.6504 10.8444 13.7338 9.94611 13.8079 9.05707C13.9005 8.16804 13.9468 7.279 13.9468 6.38996C13.9468 5.96396 13.9283 5.53797 13.8912 5.11197C13.8727 4.68597 13.8171 4.25997 13.7245 3.83398C13.4097 3.92658 13.0577 4.02845 12.6688 4.13958C12.2984 4.23219 11.9835 4.39889 11.7242 4.63967H11.5019C11.0204 4.63967 10.5666 4.73228 10.1406 4.91749C9.73311 5.10271 9.31638 5.27866 8.89038 5.44536C8.70516 5.53797 8.51995 5.60279 8.33473 5.63983C8.14951 5.65836 7.95504 5.6954 7.7513 5.75096C7.65869 5.76949 7.55682 5.82505 7.44569 5.91766C7.33456 6.01027 7.23269 6.07509 7.14009 6.11214L6.66778 6.22327C6.53813 6.26031 6.48257 6.34366 6.50109 6.47331C6.51961 6.60296 6.47331 6.68631 6.36218 6.72335C6.26957 6.81596 6.13992 6.86226 5.97322 6.86226C5.80653 6.84374 5.67688 6.83448 5.58427 6.83448H5.47314C5.0101 7.16787 4.56558 7.45495 4.13958 7.69573C3.69506 7.91799 3.17646 8.06617 2.58377 8.14025L1.97255 8.52921C1.76881 8.65886 1.53729 8.72369 1.27799 8.72369C1.07425 8.72369 0.90756 8.68664 0.777908 8.61256C0.629735 8.3903 0.518605 8.14025 0.444519 7.86243C0.351911 7.58461 0.203738 7.34382 0 7.14009C0.0926081 7.04748 0.157434 6.92709 0.194477 6.77891C0.212999 6.61222 0.240781 6.46405 0.277824 6.3344C0.833473 6.09361 1.39838 5.86209 1.97255 5.63983C2.5282 5.41758 3.06533 5.14901 3.58393 4.83414C3.6395 4.85267 3.72285 4.86193 3.83398 4.86193C4.01919 4.86193 4.18589 4.83414 4.33406 4.77858C4.48223 4.72301 4.63041 4.65819 4.77858 4.5841C4.92675 4.51002 5.07492 4.44519 5.2231 4.38963C5.37127 4.33406 5.54723 4.31554 5.75096 4.33406C6.3807 3.98215 7.04748 3.69506 7.7513 3.4728C8.45512 3.25055 9.1219 2.94494 9.75163 2.55598C9.84424 2.55598 9.91833 2.57451 9.97389 2.61155C10.048 2.64859 10.1221 2.66711 10.1962 2.66711C10.2702 2.66711 10.3165 2.65785 10.3351 2.63933C10.4462 2.49116 10.5944 2.38929 10.7796 2.33372C10.9648 2.25964 11.15 2.20407 11.3352 2.16703C11.539 2.11147 11.7242 2.04664 11.8909 1.97255C12.0761 1.87994 12.1965 1.74103 12.2521 1.55582C12.3447 1.6299 12.4836 1.66695 12.6688 1.66695C12.9837 1.66695 13.2707 1.60212 13.53 1.47247C13.8079 1.34282 14.1042 1.27799 14.4191 1.27799C14.4932 1.27799 14.558 1.29651 14.6136 1.33356C14.6876 1.35208 14.7617 1.36134 14.8358 1.36134C14.984 1.36134 15.0581 1.31504 15.0581 1.22243C15.0766 1.12982 15.1322 1.04647 15.2248 0.972385C16.3546 0.768647 17.4752 0.583431 18.5864 0.416737C19.7163 0.250042 20.8553 0.166695 22.0037 0.166695C22.1704 0.0555649 22.3556 0 22.5593 0C22.7631 0 22.9483 0.0555649 23.115 0.166695C23.4299 0.129651 23.7447 0.101869 24.0596 0.0833473C24.3745 0.0648257 24.6893 0.0555649 25.0042 0.0555649C25.7265 0.0555649 26.4674 0.101869 27.2268 0.194477C27.9862 0.287085 28.7363 0.435258 29.4772 0.638996C30.2365 0.824212 30.9589 1.08352 31.6442 1.4169C32.3295 1.73177 32.9685 2.11147 33.5612 2.55598C33.6167 2.72268 33.6908 2.88937 33.7834 3.05607C33.876 3.22276 33.9964 3.35241 34.1446 3.44502C34.1446 3.48207 34.1353 3.50985 34.1168 3.52837C34.1168 3.54689 34.1168 3.57467 34.1168 3.61172C34.1168 3.81545 34.1724 4.00993 34.2835 4.19515C34.4132 4.38036 34.478 4.60262 34.478 4.86193C34.478 5.12123 34.4317 5.38053 34.3391 5.63983C34.265 5.89914 34.2372 6.15844 34.2557 6.41774C34.052 6.71409 33.876 6.98265 33.7279 7.22343C33.5982 7.46421 33.5149 7.76982 33.4778 8.14025C33.1444 8.47364 32.8481 8.84408 32.5888 9.25155C32.3295 9.64051 32.0609 10.0295 31.7831 10.4184C31.5238 10.7888 31.2275 11.1315 30.8941 11.4464C30.5607 11.7612 30.1625 12.0113 29.6994 12.1965C29.6809 12.3817 29.6068 12.5854 29.4772 12.8077H28.8937C28.8382 12.9559 28.7456 13.067 28.6159 13.1411L28.227 13.3634C28.0973 13.4374 27.9862 13.53 27.8936 13.6412C27.8195 13.7523 27.7824 13.9097 27.7824 14.1135C27.7454 14.095 27.6991 14.0857 27.6435 14.0857C27.4583 14.0857 27.236 14.1783 26.9767 14.3635C26.736 14.5487 26.5415 14.6969 26.3933 14.808C26.0784 15.0303 25.7543 15.234 25.4209 15.4193C25.1061 15.6045 24.8282 15.8638 24.5875 16.1972C23.8466 16.512 23.1428 16.8825 22.476 17.3085C21.8092 17.7159 21.0869 18.0401 20.309 18.2808C20.0126 18.5957 19.6607 18.8458 19.2532 19.031C18.8643 19.1977 18.4846 19.3829 18.1141 19.5866V19.67C18.1141 19.8181 18.1697 19.9663 18.2808 20.1145C18.392 20.2441 18.5216 20.3645 18.6698 20.4757C18.818 20.5683 18.9754 20.6331 19.1421 20.6701C19.3273 20.7072 19.4847 20.7072 19.6144 20.6701C19.9848 21.0035 20.4108 21.2721 20.8924 21.4758C21.374 21.6796 21.874 21.8648 22.3926 22.0315C22.9112 22.1982 23.4206 22.3741 23.9207 22.5593C24.4208 22.7446 24.8838 22.9761 25.3098 23.2539H25.9766C26.4026 23.6243 26.9027 23.9022 27.4768 24.0874C28.0695 24.2726 28.6344 24.4393 29.1716 24.5875C29.3938 24.7912 29.6716 24.9486 30.005 25.0598C30.3569 25.1524 30.6903 25.1987 31.0052 25.1987H31.1719C31.246 25.1987 31.3108 25.1894 31.3664 25.1709V25.2265C31.3664 25.3191 31.3941 25.3839 31.4497 25.4209C31.5053 25.4395 31.5608 25.458 31.6164 25.4765C31.6905 25.4765 31.7553 25.495 31.8109 25.5321C31.885 25.5506 31.9405 25.5876 31.9776 25.6432H32.2554C32.6444 25.6432 33.0148 25.7265 33.3667 25.8932C33.7186 26.0414 34.089 26.1155 34.478 26.1155C34.6447 26.1155 34.7743 26.097 34.867 26.0599C34.9781 26.097 35.0614 26.1711 35.117 26.2822C35.1726 26.3933 35.2466 26.4859 35.3393 26.56C35.4689 26.5415 35.5893 26.523 35.7004 26.5044C35.8116 26.5044 35.9227 26.5044 36.0338 26.5044C36.4413 26.5044 36.821 26.5507 37.1729 26.6434C37.5248 26.736 37.886 26.8749 38.2564 27.0601C38.8491 26.8008 39.4325 26.5878 40.0067 26.4211C40.5809 26.2544 41.1921 26.1711 41.8403 26.1711V26.2266C41.8403 26.4489 41.8959 26.6526 42.007 26.8378C42.1367 27.0416 42.2478 27.2453 42.3404 27.449ZM31.6998 5.27866C31.6998 5.0564 31.6535 4.88045 31.5608 4.7508C31.4868 4.62115 31.3849 4.51002 31.2552 4.41741C31.1256 4.30628 30.9867 4.20441 30.8385 4.1118C30.7089 4.01919 30.5885 3.8988 30.4773 3.75063C29.9958 3.60246 29.5235 3.43576 29.0604 3.25055C28.5974 3.06533 28.1251 2.9079 27.6435 2.77824C27.4027 2.72268 27.162 2.67637 26.9212 2.63933C26.6804 2.58377 26.4396 2.55598 26.1988 2.55598H25.5876C25.4765 2.53746 25.3561 2.51894 25.2264 2.50042C25.1153 2.46338 25.0042 2.43559 24.8931 2.41707C24.6338 2.38003 24.3745 2.35225 24.1152 2.33372C23.8744 2.3152 23.6243 2.30594 23.365 2.30594C22.8835 2.30594 22.4019 2.32446 21.9203 2.36151L20.4757 2.47264C20.2719 2.49116 20.0589 2.50042 19.8367 2.50042C19.6144 2.50042 19.4107 2.51894 19.2254 2.55598C19.1328 2.57451 19.0032 2.62081 18.8365 2.6949C18.6698 2.75046 18.4938 2.81529 18.3086 2.88937C18.1234 2.94494 17.9382 3.00976 17.753 3.08385C17.5863 3.15794 17.4381 3.2135 17.3085 3.25055C17.327 3.3802 17.3362 3.50985 17.3362 3.6395V4.00067C17.3362 4.2785 17.327 4.55632 17.3085 4.83414C17.2899 5.11197 17.2529 5.38979 17.1973 5.66762C17.1788 5.77875 17.151 5.88988 17.114 6.00101C17.0769 6.11214 17.0492 6.22327 17.0306 6.3344C16.9936 6.50109 16.9751 6.68631 16.9751 6.89004V7.41791C16.938 7.84391 16.9102 8.26064 16.8917 8.66812C16.8732 9.0756 16.8454 9.49233 16.8084 9.91833C16.6972 11.1408 16.5769 12.3539 16.4472 13.5578C16.3361 14.7617 16.262 15.9749 16.2249 17.1973C16.8362 17.0677 17.4196 16.8732 17.9752 16.6139C18.5309 16.3546 19.0773 16.0768 19.6144 15.7804C20.1515 15.4656 20.6887 15.1599 21.2258 14.8636C21.7629 14.5673 22.3278 14.3172 22.9205 14.1135C23.0687 13.9097 23.2446 13.743 23.4484 13.6134C23.6706 13.4837 23.8559 13.317 24.004 13.1133C24.1892 13.1133 24.3282 13.0763 24.4208 13.0022C24.5134 12.9096 24.6338 12.8447 24.7819 12.8077C25.671 12.0298 26.5785 11.2982 27.5046 10.6129C28.4307 9.92759 29.3197 9.19599 30.1717 8.41808C30.2458 8.15878 30.3662 7.90873 30.5329 7.66795C30.7181 7.40865 30.8941 7.14935 31.0608 6.89004C31.2275 6.63074 31.3756 6.37144 31.5053 6.11214C31.6349 5.85283 31.6998 5.57501 31.6998 5.27866Z" fill="white"/>
<circle cx="137.258" cy="21.5684" r="4.74154" fill="#F8BA46"/>
</svg>
